<svg viewBox="0 0 199.63 75.76" xmlns="http://www.w3.org/2000/svg"><rect fill="#fff" height="70.76" rx="30.37" width="194.63" x="3.33" y="2.5"/><path d="m196.54 37.16a35.39 35.39 0 0 1 -35.38 35.38h-123.87a35.38 35.38 0 0 1 -35.39-35.38 34 34 0 0 1 .33-4.76 35.38 35.38 0 0 0 35.06 30.6h123.87a35.4 35.4 0 0 0 35.06-30.6 35.56 35.56 0 0 1 .32 4.76z" fill="#dbcec8"/><rect fill="none" height="70.76" rx="35.38" stroke="#3e3127" stroke-miterlimit="10" stroke-width="5" width="194.63" x="2.5" y="2.5"/><path d="m69.82 14.86 2.66 5.39a.92.92 0 0 0 .7.51l5.95.87a.93.93 0 0 1 .52 1.58l-4.31 4.2a.89.89 0 0 0 -.26.82l1 5.93a.93.93 0 0 1 -1.35 1l-5.32-2.8a.93.93 0 0 0 -.86 0l-5.32 2.8a.93.93 0 0 1 -1.35-1l1-5.93a.89.89 0 0 0 -.26-.82l-4.31-4.2a.93.93 0 0 1 .52-1.58l5.95-.87a.92.92 0 0 0 .7-.51l2.66-5.39a.92.92 0 0 1 1.68 0z" fill="#ffc754"/><path d="m38.78 14.86 2.66 5.39a.92.92 0 0 0 .7.51l6 .87a.93.93 0 0 1 .52 1.58l-4.31 4.2a.93.93 0 0 0 -.27.82l1 5.93a.93.93 0 0 1 -1.35 1l-5.32-2.8a.93.93 0 0 0 -.86 0l-5.33 2.8a.92.92 0 0 1 -1.34-1l1-5.93a.93.93 0 0 0 -.27-.82l-4.3-4.2a.93.93 0 0 1 .51-1.58l5.95-.87a.89.89 0 0 0 .7-.51l2.66-5.39a.93.93 0 0 1 1.65 0z" fill="#ffc754"/><path d="m100.86 14.86 2.67 5.39a.89.89 0 0 0 .7.51l6 .87a.93.93 0 0 1 .51 1.58l-4.3 4.2a.93.93 0 0 0 -.27.82l1 5.93a.92.92 0 0 1 -1.34 1l-5.33-2.8a.93.93 0 0 0 -.86 0l-5.32 2.8a.93.93 0 0 1 -1.35-1l1-5.93a.93.93 0 0 0 -.27-.82l-4.31-4.2a.93.93 0 0 1 .52-1.58l6-.87a.92.92 0 0 0 .7-.51l2.66-5.39a.92.92 0 0 1 1.59 0z" fill="#ffc754"/><path d="m131.91 14.86 2.66 5.39a.89.89 0 0 0 .7.51l5.95.87a.93.93 0 0 1 .51 1.58l-4.3 4.2a.93.93 0 0 0 -.27.82l1 5.93a.93.93 0 0 1 -1.35 1l-5.32-2.8a1 1 0 0 0 -.87 0l-5.32 2.8a.93.93 0 0 1 -1.35-1l1-5.93a.93.93 0 0 0 -.27-.82l-4.31-4.2a.93.93 0 0 1 .52-1.58l5.95-.87a.92.92 0 0 0 .7-.51l2.66-5.39a.93.93 0 0 1 1.71 0z" fill="#ffc754"/><path d="m163 14.86 2.66 5.39a.91.91 0 0 0 .7.51l5.95.87a.93.93 0 0 1 .51 1.58l-4.3 4.2a.93.93 0 0 0 -.27.82l1 5.93a.93.93 0 0 1 -1.35 1l-5.32-2.8a1 1 0 0 0 -.87 0l-5.32 2.8a.93.93 0 0 1 -1.35-1l1-5.93a.93.93 0 0 0 -.27-.82l-4.3-4.2a.92.92 0 0 1 .51-1.58l5.95-.87a.92.92 0 0 0 .7-.51l2.66-5.39a.93.93 0 0 1 1.71 0z" fill="#ffc754"/><path d="m43.87 27.41a.93.93 0 0 0 -.27.82l1 5.93a.92.92 0 0 1 -1.35 1l-5.25-2.82a.94.94 0 0 0 -.43-.1v-17.89a.94.94 0 0 1 .84.51l2.59 5.39a.91.91 0 0 0 .7.51l5.95.87a.92.92 0 0 1 .51 1.58z" fill="#e8aa46"/><path d="m74.92 27.41a.93.93 0 0 0 -.28.82l1 5.93a.92.92 0 0 1 -1.34 1l-5.3-2.82a.91.91 0 0 0 -.43-.1v-17.89a.94.94 0 0 1 .84.51l2.65 5.39a.92.92 0 0 0 .7.51l6 .87a.93.93 0 0 1 .52 1.58z" fill="#e8aa46"/><path d="m106 27.41a.93.93 0 0 0 -.27.82l1 5.93a.92.92 0 0 1 -1.34 1l-5.39-2.82a.91.91 0 0 0 -.43-.1v-17.89a.94.94 0 0 1 .84.51l2.65 5.39a.92.92 0 0 0 .7.51l5.95.87a.92.92 0 0 1 .52 1.58z" fill="#e8aa46"/><path d="m137 27.41a.93.93 0 0 0 -.27.82l1 5.93a.92.92 0 0 1 -1.34 1l-5.33-2.79a.88.88 0 0 0 -.43-.1v-17.92a.94.94 0 0 1 .84.51l2.65 5.39a.92.92 0 0 0 .7.51l5.95.87a.92.92 0 0 1 .52 1.58z" fill="#e8aa46"/><path d="m168.47 27.41a.93.93 0 0 0 -.27.82l1 5.93a.92.92 0 0 1 -1.34 1l-5.32-2.79a1 1 0 0 0 -.44-.1v-17.92a.94.94 0 0 1 .84.51l2.65 5.39a.92.92 0 0 0 .71.51l5.94.87a.92.92 0 0 1 .52 1.58z" fill="#e8aa46"/><path d="m50.43 47.56h99.28" fill="none" stroke="#3e3127" stroke-linecap="round" stroke-miterlimit="10" stroke-width="3"/><path d="m34.16 57.06h32.53" fill="none" stroke="#3e3127" stroke-linecap="round" stroke-miterlimit="10" stroke-width="3"/><path d="m75.72 57.06h13.09" fill="none" stroke="#3e3127" stroke-linecap="round" stroke-miterlimit="10" stroke-width="3"/><circle cx="171.7" cy="46.74" fill="#dbcec8" r="3.93"/><circle cx="166.73" cy="58.81" fill="#dbcec8" r="10.3"/><g fill="none" stroke="#3e3127" stroke-miterlimit="10"><path d="m38.35 14.86 2.65 5.39a.92.92 0 0 0 .7.51l5.95.87a.93.93 0 0 1 .52 1.58l-4.31 4.2a.89.89 0 0 0 -.26.82l1 5.93a.93.93 0 0 1 -1.35 1l-5.25-2.82a.93.93 0 0 0 -.86 0l-5.32 2.8a.93.93 0 0 1 -1.35-1l1-5.93a1 1 0 0 0 -.26-.82l-4.31-4.2a.93.93 0 0 1 .52-1.58l5.94-.87a.89.89 0 0 0 .7-.51l2.67-5.39a.92.92 0 0 1 1.62.02z" stroke-width="2"/><path d="m69.39 14.86 2.66 5.39a.92.92 0 0 0 .7.51l6 .87a.93.93 0 0 1 .52 1.58l-4.31 4.2a1 1 0 0 0 -.26.82l1 5.93a.93.93 0 0 1 -1.35 1l-5.35-2.82a.93.93 0 0 0 -.86 0l-5.32 2.8a.93.93 0 0 1 -1.35-1l1-5.93a.89.89 0 0 0 -.26-.82l-4.31-4.2a.93.93 0 0 1 .52-1.58l6-.87a.92.92 0 0 0 .7-.51l2.66-5.39a.92.92 0 0 1 1.61.02z" stroke-width="2"/><path d="m100.44 14.86 2.66 5.39a.89.89 0 0 0 .7.51l6 .87a.93.93 0 0 1 .51 1.58l-4.3 4.2a.93.93 0 0 0 -.27.82l1 5.93a.92.92 0 0 1 -1.34 1l-5.4-2.82a.93.93 0 0 0 -.86 0l-5.32 2.8a.93.93 0 0 1 -1.35-1l1-5.93a.93.93 0 0 0 -.27-.82l-4.31-4.2a.93.93 0 0 1 .52-1.58l6-.87a.92.92 0 0 0 .7-.51l2.66-5.39a.93.93 0 0 1 1.67.02z" stroke-width="2"/><path d="m131.48 14.86 2.66 5.39a.89.89 0 0 0 .7.51l5.95.87a.93.93 0 0 1 .51 1.58l-4.3 4.2a.93.93 0 0 0 -.27.82l1 5.93a.93.93 0 0 1 -1.35 1l-5.32-2.8a1 1 0 0 0 -.87 0l-5.32 2.8a.93.93 0 0 1 -1.35-1l1-5.93a.93.93 0 0 0 -.27-.82l-4.25-4.2a.93.93 0 0 1 .52-1.58l6-.87a.92.92 0 0 0 .7-.51l2.66-5.39a.93.93 0 0 1 1.6 0z" stroke-width="2"/><path d="m162.52 14.86 2.66 5.39a.91.91 0 0 0 .7.51l6 .87a.92.92 0 0 1 .51 1.58l-4.3 4.2a.93.93 0 0 0 -.27.82l1 5.93a.93.93 0 0 1 -1.35 1l-5.32-2.8a1 1 0 0 0 -.87 0l-5.32 2.8a.93.93 0 0 1 -1.35-1l1-5.93a.93.93 0 0 0 -.27-.82l-4.3-4.2a.92.92 0 0 1 .51-1.58l6-.87a.91.91 0 0 0 .7-.51l2.66-5.39a.93.93 0 0 1 1.61 0z" stroke-width="2"/></g></svg>